<?xml version="1.0" encoding="UTF-8"?>
<svg xmlns="http://www.w3.org/2000/svg" xmlns:xlink="http://www.w3.org/1999/xlink" width="328pt" height="266pt" viewBox="0 0 328 266" version="1.1">
<g id="surface3733">
<path style=" stroke:none;fill-rule:evenodd;fill:rgb(0%,0%,0%);fill-opacity:1;" d="M 28.277344 54.652344 C 28.277344 48.527344 19.09375 48.527344 19.09375 54.652344 C 19.09375 60.777344 28.277344 60.777344 28.277344 54.652344 Z M 28.277344 54.652344 "/>
<path style=" stroke:none;fill-rule:evenodd;fill:rgb(0%,0%,0%);fill-opacity:1;" d="M 150.75 5.664062 C 150.75 -0.460938 141.5625 -0.460938 141.5625 5.664062 C 141.5625 11.789062 150.75 11.789062 150.75 5.664062 Z M 150.75 5.664062 "/>
<path style=" stroke:none;fill-rule:evenodd;fill:rgb(0%,0%,0%);fill-opacity:1;" d="M 297.714844 30.160156 C 297.714844 24.035156 288.527344 24.035156 288.527344 30.160156 C 288.527344 36.28125 297.714844 36.28125 297.714844 30.160156 Z M 297.714844 30.160156 "/>
<path style=" stroke:none;fill-rule:evenodd;fill:rgb(0%,0%,0%);fill-opacity:1;" d="M 141.257812 89.8125 C 141.257812 83.6875 132.070312 83.6875 132.070312 89.8125 C 132.070312 95.933594 141.257812 95.933594 141.257812 89.8125 Z M 141.257812 89.8125 "/>
<path style=" stroke:none;fill-rule:evenodd;fill:rgb(0%,0%,0%);fill-opacity:1;" d="M 49.257812 128.8125 C 49.257812 122.6875 40.070312 122.6875 40.070312 128.8125 C 40.070312 134.933594 49.257812 134.933594 49.257812 128.8125 Z M 49.257812 128.8125 "/>
<path style=" stroke:none;fill-rule:evenodd;fill:rgb(0%,0%,0%);fill-opacity:1;" d="M 10.257812 259.8125 C 10.257812 253.6875 1.070312 253.6875 1.070312 259.8125 C 1.070312 265.933594 10.257812 265.933594 10.257812 259.8125 Z M 10.257812 259.8125 "/>
<path style=" stroke:none;fill-rule:evenodd;fill:rgb(0%,0%,0%);fill-opacity:1;" d="M 179.257812 164.8125 C 179.257812 158.6875 170.070312 158.6875 170.070312 164.8125 C 170.070312 170.933594 179.257812 170.933594 179.257812 164.8125 Z M 179.257812 164.8125 "/>
<path style=" stroke:none;fill-rule:evenodd;fill:rgb(0%,0%,0%);fill-opacity:1;" d="M 326.257812 130.8125 C 326.257812 124.6875 317.070312 124.6875 317.070312 130.8125 C 317.070312 136.933594 326.257812 136.933594 326.257812 130.8125 Z M 326.257812 130.8125 "/>
<path style=" stroke:none;fill-rule:evenodd;fill:rgb(0%,0%,0%);fill-opacity:1;" d="M 322.257812 223.8125 C 322.257812 217.6875 313.070312 217.6875 313.070312 223.8125 C 313.070312 229.933594 322.257812 229.933594 322.257812 223.8125 Z M 322.257812 223.8125 "/>
</g>
</svg>
